<svg id="Layer_1" data-name="Layer 1" xmlns="http://www.w3.org/2000/svg" xmlns:xlink="http://www.w3.org/1999/xlink" viewBox="0 0 154.37 123.5">
  <defs>
    <linearGradient id="linear-gradient" x1="28.53" y1="111.79" x2="127.38" y2="12.94" gradientUnits="userSpaceOnUse">
      <stop offset="0" stop-color="#b8b8b8"/>
      <stop offset="1" stop-color="#ededed"/>
    </linearGradient>
    <linearGradient id="linear-gradient-2" x1="31" y1="109.32" x2="124.91" y2="15.4" gradientUnits="userSpaceOnUse">
      <stop offset="0" stop-color="#dbdbdb"/>
      <stop offset="1" stop-color="#fff"/>
    </linearGradient>
    <linearGradient id="linear-gradient-3" x1="44.43" y1="95.89" x2="111.48" y2="28.84" gradientUnits="userSpaceOnUse">
      <stop offset="0" stop-color="#fff"/>
      <stop offset="1" stop-color="#d1d1d1"/>
    </linearGradient>
    <linearGradient id="linear-gradient-4" x1="46.86" y1="93.45" x2="109.05" y2="31.27" xlink:href="#linear-gradient-2"/>
    <style>
      .cls-3{fill:#1d1d1b}.cls-6{fill:#e30613}
    </style>
  </defs>
  <path d="M.77 62.36c0 34.1 34.56 61.75 77.19 61.75s77.18-27.65 77.18-61.75S120.58.61 78 .61.77 28.26.77 62.36" transform="translate(-.77 -.61)" style="fill:url(#linear-gradient)"/>
  <path d="M4.28 62.36c0 32.17 33 58.24 73.68 58.24s73.67-26.07 73.67-58.24S118.64 4.12 78 4.12 4.28 30.2 4.28 62.36" transform="translate(-.77 -.61)" style="fill:url(#linear-gradient-2)"/>
  <path class="cls-3" d="m17.36 48.84-.38.92 3.36 1.36-1 2.43-9.14-3.71 1.35-3.32c.95-2.35 2.4-3.15 4.23-2.41a2.86 2.86 0 0 1 1.91 2.3l4-.41.58.24-.91 2.25Zm-2 .28.31-.77a1.19 1.19 0 0 0-.7-1.79 1.19 1.19 0 0 0-1.75.8l-.31.77ZM21.07 42.56a1.47 1.47 0 0 0 2.25-.56 3.12 3.12 0 0 0 .55-1.83l.42-.64 1.25.83a5.52 5.52 0 0 1-1 2.89 3.43 3.43 0 0 1-5.24 1.08 3.55 3.55 0 0 1-1.21-5.2C19.3 37.29 21 37 23 38.39c.25.16.46.33.53.38ZM20 41.81 21.2 40c-1-.6-1.48-.49-1.84.06S19 41 20 41.81ZM23.77 37.71a3.66 3.66 0 0 1-.13-5.53 4.68 4.68 0 0 1 1.92-1.33L26.84 32l-.6.65a1.88 1.88 0 0 0-1.21.63c-.64.69-.58 1.63.45 2.58s1.9.93 2.54.24a1.91 1.91 0 0 0 .58-1.4l.56-.61 1.17 1.08a4.38 4.38 0 0 1-1.17 2.26 3.47 3.47 0 0 1-5.39.28ZM28.43 32.67a3.83 3.83 0 1 1 5.9-4.88 3.83 3.83 0 0 1-5.9 4.88Zm4-3.28c-.94-1.14-1.79-1.31-2.4-.81s-.61 1.39.33 2.53 1.76 1.27 2.38.75.62-1.34-.31-2.47ZM35.54 23.6a3.72 3.72 0 0 1 1.63-2.14 1.67 1.67 0 0 1 2 0 3.81 3.81 0 0 1 1.7-2.21c.91-.53 1.9-.53 2.71.85l2.73 4.7-2.12 1.24-2.4-4.13c-.32-.54-.61-.59-1.11-.3a3.29 3.29 0 0 0-.82.74L42.61 27l-2.12 1.23-2.4-4.13c-.31-.53-.61-.59-1.11-.3a3.65 3.65 0 0 0-.82.72l2.71 4.66-2.13 1.23L33 24l1.47-.85c.34-.15.62-.15 1.07.45ZM47.4 17.46a3.7 3.7 0 0 1 2-1.81 1.66 1.66 0 0 1 2 .4 3.84 3.84 0 0 1 2.07-1.87c1-.36 2-.18 2.51 1.33l1.84 5.11-2.31.83L53.89 17c-.21-.58-.49-.69-1-.49a3.32 3.32 0 0 0-.94.57l1.82 5.05-2.31.83-1.62-4.49c-.21-.58-.49-.69-1-.49a3.44 3.44 0 0 0-.94.56l1.82 5.06-2.31.83-2.51-7 1.6-.58c.3-.15.57-.08.9.61ZM60 17c.39 1.2 1 1.4 2 1.18a3 3 0 0 0 1.67-.92l.74-.16.33 1.47A5.53 5.53 0 0 1 62 20a3.44 3.44 0 0 1-4.51-2.89 3.55 3.55 0 0 1 2.76-4.56c2.18-.48 3.56.48 4.1 2.93.06.29.09.55.11.64Zm-.27-1.29 2.19-.48c-.29-1.11-.72-1.39-1.36-1.25s-.93.54-.81 1.76ZM67.56 12.28A4 4 0 0 1 70 11c1.07-.12 2 .23 2.17 1.87l.6 5.4-2.43.27-.54-4.74c-.07-.64-.35-.78-.93-.72a3.7 3.7 0 0 0-1.15.37l.6 5.32-2.41.23-.83-7.37 1.69-.19c.38-.02.62.11.79.84ZM78.18 17.37a2.63 2.63 0 0 1-2.06.93c-1.62 0-2.88-1.15-2.91-3.7 0-2.93 1.5-3.94 2.94-4a2.38 2.38 0 0 1 1.87.68v-3h1.56c.76 0 .9.2.91 1.32l.11 8.53h-1.73c-.37.01-.57-.13-.69-.76Zm-.1-1.22v-3.39a1.73 1.73 0 0 0-1-.25c-.72 0-1.4.37-1.38 2s.45 2.1 1.27 2.09a1.58 1.58 0 0 0 1.11-.45ZM83.74 15.2c0 1.26.56 1.63 1.55 1.72a3 3 0 0 0 1.86-.39l.76.06-.12 1.5a5.46 5.46 0 0 1-3 .48 3.43 3.43 0 0 1-3.45-4.09 3.54 3.54 0 0 1 4-3.54c2.23.19 3.26 1.51 3 4 0 .29-.07.55-.08.64Zm.12-1.32 2.23.19c.06-1.14-.28-1.53-.93-1.59s-1.06.21-1.3 1.4ZM93.74 19a2.66 2.66 0 0 1-2.2.49c-1.6-.31-2.59-1.71-2.11-4.21.57-2.88 2.28-3.56 3.68-3.28a2.39 2.39 0 0 1 1.7 1l.58-3 1.52.3c.75.15.84.38.63 1.47l-1.62 8.38-1.7-.33c-.32 0-.49-.19-.48-.82Zm.15-1.22.65-3.33a1.74 1.74 0 0 0-.9-.44c-.71-.13-1.45.08-1.76 1.68s0 2.16.82 2.32a1.65 1.65 0 0 0 1.19-.23ZM103.05 12l3.3 1.17c2.45.86 3.34 2.26 2.61 4.33s-2.37 2.54-4.83 1.67l-.75-.27-1.15 3.27-2.47-.87Zm.88 5.3.75.27a1.26 1.26 0 0 0 1.83-.92c.31-.88.18-1.44-.87-1.8l-.74-.27ZM111.53 20.46 109.4 25l-2.22-1 3.13-6.73 1.55.72c.35.16.48.41.2 1.22a2.42 2.42 0 0 1 2.24-.14 2 2 0 0 1 .38.24l-.86 1.84-.3-.14a5.15 5.15 0 0 0-1.99-.55ZM113.54 22.85a3.83 3.83 0 1 1 6.57 3.92 3.83 3.83 0 0 1-6.57-3.92Zm4.46 2.67c.76-1.27.63-2.13 0-2.53s-1.5-.11-2.26 1.16-.61 2.08.08 2.49 1.39.14 2.18-1.12ZM122.11 24.31l.35-.46 1.85 1.44-1.61 4.6 4-2.79 1.65 1.27-.36.46-6.13 3.91-1.92-1.49ZM124 34.63l5.11-5.39 1.15 1.09c.54.51.45.78-.36 1.62l-4.13 4.36Zm6.21-6.6a1.27 1.27 0 0 1 1.84 1.75 1.27 1.27 0 0 1-1.82-1.78ZM130.16 40a2.63 2.63 0 0 1-2-1c-1-1.25-.91-3 1.05-4.58 2.26-1.87 4-1.31 4.93-.21a2.41 2.41 0 0 1 .65 1.89l2.33-1.93 1 1.2c.49.59.42.83-.44 1.54l-6.58 5.43L130 41c-.24-.22-.25-.48.16-1Zm.89-.84 2.61-2.16a1.63 1.63 0 0 0-.42-.91c-.46-.56-1.16-.86-2.42.18s-1.36 1.73-.82 2.35a1.67 1.67 0 0 0 1.05.58ZM135.33 43.35a1.46 1.46 0 0 0-.55 2.25 3.06 3.06 0 0 0 1.38 1.32l.37.66-1.31.75a5.53 5.53 0 0 1-2.1-2.23 3.44 3.44 0 0 1 1.43-5.16 3.55 3.55 0 0 1 5.17 1.29c1.1 2 .6 3.55-1.59 4.78-.26.15-.5.25-.58.29Zm1.16-.64 1.09 1.95c1-.6 1.12-1.1.79-1.67s-.76-.75-1.88-.28ZM140.6 50.26l-4.76 1.67-.84-2.32 7-2.45.56 1.61c.13.36.05.63-.72 1a2.43 2.43 0 0 1 1.66 1.51 2.2 2.2 0 0 1 .09.43l-1.91.67-.11-.31a5.51 5.51 0 0 0-.97-1.81Z" transform="translate(-.77 -.61)"/>
  <path d="M23.22 62.36c0 21.3 25.07 39.29 54.73 39.29s54.74-18 54.74-39.29S107.62 23.07 78 23.07s-54.73 18-54.73 39.29" transform="translate(-.77 -.61)" style="fill:url(#linear-gradient-3)"/>
  <path d="M26.73 62.36c0 19.4 23.46 35.79 51.22 35.79s51.23-16.39 51.23-35.79S105.72 26.57 78 26.57 26.73 43 26.73 62.36" transform="translate(-.77 -.61)" style="fill:url(#linear-gradient-4)"/>
  <path class="cls-6" d="m55.62 63.33-2.16-9.07c-.34-1.4-.82-1.82-2-1.82h-2.22l-2.53 10.89-2.22-10.89h-4.43l4.27 18.36h3.86L51 60.3l2.85 10.5h3.75l4.32-18.36h-4.21ZM70.94 56.61A6.85 6.85 0 0 0 66.78 58v-4c0-1-.35-1.58-1.41-1.58h-2.79V70.8h4.2V60.37A10.23 10.23 0 0 1 69.2 60c.9 0 1.43.24 1.43 1.32v9.48h4.19V60.22c0-2.06-.82-3.61-3.88-3.61" transform="translate(-.77 -.61)"/>
  <path class="cls-6" d="M75.23 56.36h4.19v13.82h-4.19z"/>
  <path class="cls-6" d="M81.12 63.89c0 4.14 2.27 7.28 6.83 7.28A6.19 6.19 0 0 0 92.09 70v-2.63a15.77 15.77 0 0 1-3.4.34c-2.17 0-3.24-1.48-3.24-3.82s1.07-3.83 3.24-3.83a15.28 15.28 0 0 1 3.4.35v-2.65A6.25 6.25 0 0 0 88 56.61c-4.56 0-6.83 3.13-6.83 7.28M101.42 56.61A6.85 6.85 0 0 0 97.26 58v-4c0-1-.34-1.58-1.4-1.58h-2.79V70.8h4.19V60.37a10.24 10.24 0 0 1 2.43-.37c.89 0 1.42.24 1.42 1.32v9.48h4.19V60.22c0-2.06-.82-3.61-3.88-3.61M79.47 52.44h-2.74a.91.91 0 0 0-.9.91v1.54a.9.9 0 0 0 .9.9h2.74a.9.9 0 0 0 .9-.9v-1.54a.9.9 0 0 0-.9-.91" transform="translate(-.77 -.61)"/>
  <path class="cls-3" d="M109.79 50.52a9.36 9.36 0 0 0-5.2 1.47v2.74a21.78 21.78 0 0 1 3.74-.39c2 0 3.19.58 3.19 2.16s-.71 1.88-1.89 2.9c-1.46 1.26-2.72 1.85-2.72 4.62v1.87h4.19v-1.38c0-1.63.85-2.21 2.24-3.34a6.25 6.25 0 0 0 2.51-5.23c0-3.13-2.06-5.42-6.06-5.42M110.32 67.05h-2.63a1 1 0 0 0-1 1v1.83a1 1 0 0 0 1 1h2.63a1 1 0 0 0 1-1V68a1 1 0 0 0-1-1M24.77 89.88c1.58-1.59 3.46-1.53 4.74-.24a3.24 3.24 0 0 1 1 1.81l-.6.6-.29-.3a2.13 2.13 0 0 0-.7-1.51c-.9-.9-2.15-.84-3.38.39s-1.42 2.48-.51 3.39a2.32 2.32 0 0 0 1.8.73l.25.25-.58.58a3.15 3.15 0 0 1-2.07-1c-1.27-1.33-1.25-3.11.34-4.7ZM29.83 98.44a2 2 0 0 1-1.61-.44 1.48 1.48 0 0 1-.29-2.23c.67-.82 1.66-.68 2.57.06a4.64 4.64 0 0 1 .79.82l.43-.53c.39-.47.28-.9-.25-1.34a2.39 2.39 0 0 0-1.37-.57l-.25-.2.48-.59a4.12 4.12 0 0 1 1.73.84c1 .78 1.22 1.58.5 2.46l-2.33 2.85-.3-.25c-.31-.32-.35-.48-.1-.88Zm.39-.52.69-.85a4.4 4.4 0 0 0-.68-.69c-.54-.44-1.09-.56-1.49-.08a.85.85 0 0 0 .17 1.32 1.53 1.53 0 0 0 1.31.3ZM34.53 98l-2.18 3.1-.83-.59 3-4.23.52.37c.21.14.23.29-.1.8a2 2 0 0 1 1.66.23 1 1 0 0 1 .21.19l-.48.68-.18-.14a2.38 2.38 0 0 0-1.62-.41ZM36.89 104.05 40.22 98l1 .52-1.43 2.6 2.71 1.49 1.43-2.6.95.52-3.33 6.08-1-.52 1.51-2.76-2.71-1.49-1.51 2.76ZM43.08 107.29l2.18-4.69.51.24c.36.17.36.3.08.89l-1.85 4Zm2.59-5.76a.6.6 0 1 1 .3.77.59.59 0 0 1-.3-.77ZM47.78 105.25l-1.45 3.49-.94-.39 2-4.78.58.25c.23.09.29.24.08.8a2 2 0 0 1 1.67-.13 1.3 1.3 0 0 1 .25.14l-.32.77-.21-.1a2.3 2.3 0 0 0-1.66-.05ZM50.43 107.78c-.36 1.18 0 1.8.94 2.12a2.26 2.26 0 0 0 1.52 0l.31.1-.23.67a3.21 3.21 0 0 1-2-.13 2.34 2.34 0 0 1-1.48-3.3 2.42 2.42 0 0 1 3.13-1.75c1.3.45 1.8 1.47 1.24 3.08 0 .13-.11.3-.13.33Zm.24-.62L53 108c.35-1.06.06-1.57-.62-1.81s-1.25-.03-1.71.97ZM58.08 105.48l2.08.5c1.38.33 2.1 1 1.8 2.26a1.41 1.41 0 0 1-1.5 1.16 1.6 1.6 0 0 1 1.06 2c-.31 1.27-1.37 1.69-2.85 1.34l-2.19-.52Zm.74 6.46c.83.2 1.44-.07 1.62-.85s-.23-1.3-1.1-1.5l-1.09-.26-.56 2.35Zm.62-3.13c.75.18 1.28 0 1.46-.75s-.22-1.12-1-1.3l-1-.24-.48 2ZM64.08 110l-.64 3.73-1-.18.88-5.1.63.11c.25 0 .33.17.25.76a2 2 0 0 1 1.6-.49.84.84 0 0 1 .27.09l-.14.82h-.22a2.32 2.32 0 0 0-1.63.26ZM66.17 111.6a2.5 2.5 0 1 1 5 .56 2.49 2.49 0 1 1-5-.56Zm3.92.45c.14-1.24-.34-2-1.22-2.08s-1.53.51-1.67 1.75.36 1.92 1.23 2 1.57-.43 1.66-1.67ZM73.3 112.1l2.24-2.32h.85v.29l-1.7 1.71 1.66 2.87v.31h-.92L74 112.49l-.71.71-.07 1.66h-1l.32-6.93h.56c.38 0 .45.12.42.69ZM78 112.6c.07 1.23.64 1.68 1.61 1.67a2.3 2.3 0 0 0 1.44-.5h.33v.7a3.22 3.22 0 0 1-1.92.57 2.34 2.34 0 0 1-2.46-2.6 2.43 2.43 0 0 1 2.34-2.72c1.38 0 2.2.76 2.22 2.47v.35Zm0-.66h2.49c0-1.12-.48-1.5-1.2-1.49s-1.15.39-1.29 1.49ZM83.63 111l.27 3.78-1 .07-.38-5.17h.64c.24 0 .36.08.43.68a2 2 0 0 1 1.43-.87.76.76 0 0 1 .28 0l.06.83h-.23a2.27 2.27 0 0 0-1.5.68ZM86.53 114.16l-.1-.77h.33a1.93 1.93 0 0 0 1.37.29c.72-.09 1.05-.39 1-.88s-.33-.59-1.18-.61c-1.07 0-1.7-.32-1.82-1.28s.54-1.59 1.67-1.73a3 3 0 0 1 1.57.17l.09.77h-.32a1.83 1.83 0 0 0-1.23-.22c-.67.08-.94.35-.89.78s.36.54 1.18.56c1.16 0 1.74.33 1.86 1.31s-.42 1.68-1.77 1.85a2.86 2.86 0 0 1-1.76-.24ZM93.32 113.29l.8-7 1.13-.25 3.67 6 .07.32-1 .22-1-1.75-2.5.55-.19 2-.86.19Zm1.2-2.74 2-.44-1.65-2.77ZM101 111.24l.62 2-1 .3-2-6.49.61-.19c.24-.07.37 0 .56.52a2.28 2.28 0 0 1 1.4-1.2c.93-.29 2 0 2.61 1.87s-.28 2.88-1.32 3.2a2.17 2.17 0 0 1-1.48-.01Zm-1-3.21.77 2.51a1.54 1.54 0 0 0 1.27.08c.69-.21 1.26-.74.82-2.16s-1.15-1.58-1.76-1.39a2.16 2.16 0 0 0-1.05.93ZM105.52 106.29l1.33 3.53-.95.36-1.83-4.84.6-.23c.23-.08.37 0 .61.54a2 2 0 0 1 1.12-1.24 1 1 0 0 1 .28-.06l.29.78-.21.07a2.24 2.24 0 0 0-1.24 1.09ZM106.93 103a.61.61 0 0 1 .32-.78.59.59 0 0 1 .78.31.59.59 0 0 1-.32.76.59.59 0 0 1-.78-.29Zm2.55 5.79-2-4.77.52-.22c.37-.15.46-.06.71.54l1.72 4ZM111.79 107.78l-2.92-6.29.52-.24c.36-.17.45-.1.7.42l2.63 5.68ZM119.68 103.64l-3.89 2.21-.44-.77.74-2.66c.34-1.27.45-2 .11-2.62a1 1 0 0 0-1.56-.36 2.25 2.25 0 0 0-1 1.29l-.32.19-.38-.66a3.21 3.21 0 0 1 1.38-1.58c1.22-.7 2.23-.53 2.85.55.5.88.28 1.9-.12 3.27l-.57 2 2.8-1.59ZM118.71 100.19c-1.35-2-.91-3.65.34-4.52s3-.69 4.34 1.28.92 3.65-.33 4.51-2.98.7-4.35-1.27Zm3.78-2.6c-1.1-1.58-2.13-1.85-3-1.26s-1 1.65.13 3.24 2.1 1.85 3 1.24.97-1.64-.13-3.22ZM129.51 96.35l-3.43 2.87-.57-.68.24-2.75c.12-1.31.08-2.08-.35-2.6a1 1 0 0 0-1.61-.08 2.25 2.25 0 0 0-.79 1.47l-.28.24-.5-.59a3.38 3.38 0 0 1 1.08-1.8c1.07-.9 2.1-.92 2.9 0 .65.78.62 1.82.47 3.24l-.2 2 2.47-2.08ZM133.53 92.36l-3.14 3.19-.64-.63v-2.77c0-1.31-.12-2.07-.6-2.55a1 1 0 0 0-1.6.07 2.19 2.19 0 0 0-.65 1.53l-.27.27-.54-.54A3.3 3.3 0 0 1 127 89c1-1 2-1.11 2.89-.23.72.71.79 1.76.77 3.18V94l2.26-2.29Z" transform="translate(-.77 -.61)"/>
</svg>
